<?xml version="1.0" encoding="UTF-8" standalone="no"?>
<svg
   xmlns:dc="http://purl.org/dc/elements/1.1/"
   xmlns:cc="http://creativecommons.org/ns#"
   xmlns:rdf="http://www.w3.org/1999/02/22-rdf-syntax-ns#"
   xmlns:svg="http://www.w3.org/2000/svg"
   xmlns="http://www.w3.org/2000/svg"
   xmlns:sodipodi="http://sodipodi.sourceforge.net/DTD/sodipodi-0.dtd"
   xmlns:inkscape="http://www.inkscape.org/namespaces/inkscape"
   inkscape:version="1.0.2 (e86c870879, 2021-01-15)"
   id="svg8"
   version="1.1"
   viewBox="0 0 69.69133 107.66991"
   height="107.66991mm"
   width="69.69133mm"
   sodipodi:docname="QfepWeb.0.svg">
  <defs
     id="defs2" />
  <sodipodi:namedview
     inkscape:pagecheckerboard="true"
     showgrid="false"
     inkscape:document-rotation="0"
     inkscape:current-layer="layer1"
     inkscape:document-units="mm"
     inkscape:cy="317.69876"
     inkscape:cx="-45.428524"
     inkscape:zoom="0.7"
     inkscape:pageshadow="2"
     inkscape:pageopacity="0.0"
     borderopacity="1.0"
     bordercolor="#666666"
     pagecolor="#ffffff"
     id="base"
     fit-margin-top="0"
     fit-margin-left="0"
     fit-margin-right="0"
     fit-margin-bottom="0"
     inkscape:window-width="1890"
     inkscape:window-height="1031"
     inkscape:window-x="781"
     inkscape:window-y="600"
     inkscape:window-maximized="0" />
  <metadata
     id="metadata5">
    <rdf:RDF>
      <cc:Work
         rdf:about="">
        <dc:format>image/svg+xml</dc:format>
        <dc:type
           rdf:resource="http://purl.org/dc/dcmitype/StillImage" />
        <dc:title></dc:title>
      </cc:Work>
    </rdf:RDF>
  </metadata>
  <g
     id="layer1"
     inkscape:groupmode="layer"
     inkscape:label="Layer 1"
     transform="translate(-73.222264,-42.5872)">
    <text
       xml:space="preserve"
       style="font-weight:bold;font-size:2.64583px;line-height:1.25;font-family:sans-serif;-inkscape-font-specification:'sans-serif Bold';stroke-width:0.264583"
       x="57.018482"
       y="112.2365"
       id="text841"><tspan
         sodipodi:role="line"
         id="tspan839"
         x="57.018482"
         y="112.2365"
         style="stroke-width:0.264583" /></text>
    <g
       id="g1036"
       transform="matrix(0.26458333,0,0,0.26458333,42.13127,14.44117)">
      <g
         id="g871">
	<polygon
   style="fill:#4eb79b"
   points="126.097,156.845 126.084,137.845 197.702,137.845 197.702,156.845 "
   id="polygon843" />

	
		<rect
   x="31.986"
   y="300.84"
   transform="matrix(-0.4999,-0.8661,0.8661,-0.4999,-167.105,524.1878)"
   style="fill:#4eb79b"
   width="71.606003"
   height="19"
   id="rect845" />

	<rect
   x="126.097"
   y="355.16101"
   style="fill:#4eb79b"
   width="71.605003"
   height="19"
   id="rect847" />

	
		<rect
   x="58.285999"
   y="165.867"
   transform="matrix(-0.8662,-0.4998,0.4998,-0.8662,25.7075,410.24)"
   style="fill:#4eb79b"
   width="19.000999"
   height="71.621002"
   id="rect849" />

	<path
   style="fill:#4eb79b"
   d="m 265.68,454.747 -31.06,-53.775 c -0.835,-1.444 -1.273,-3.083 -1.273,-4.751 v -9.5 l 19,-0.013 v 6.967 l 29.787,51.571 z"
   id="path851" />

	
		<rect
   x="434.68799"
   y="383.19901"
   transform="matrix(-0.866,-0.5001,0.5001,-0.866,619.3043,1003.9916)"
   style="fill:#4eb79b"
   width="19.000999"
   height="71.619003"
   id="rect853" />

	
		<rect
   x="246.48599"
   y="274.53699"
   transform="matrix(-0.866,-0.5001,0.5001,-0.866,322.464,707.1144)"
   style="fill:#4eb79b"
   width="19.000999"
   height="71.619003"
   id="rect855" />

	
		<rect
   x="408.38101"
   y="300.83099"
   transform="matrix(-0.5,-0.866,0.866,-0.5,397.536,850.1755)"
   style="fill:#4eb79b"
   width="71.615997"
   height="19"
   id="rect857" />

	<rect
   x="314.298"
   y="463.82901"
   style="fill:#4eb79b"
   width="71.605003"
   height="19"
   id="rect859" />

	
		<rect
   x="58.278"
   y="383.17999"
   transform="matrix(-0.866,-0.5,0.5,-0.866,-83.0185,815.7051)"
   style="fill:#4eb79b"
   width="19"
   height="71.591003"
   id="rect861" />

	
		<rect
   x="434.71399"
   y="165.888"
   transform="matrix(-0.866,-0.5,0.5,-0.866,728.0773,598.4846)"
   style="fill:#4eb79b"
   width="19.000999"
   height="71.635002"
   id="rect863" />

	
		<rect
   x="220.155"
   y="192.175"
   transform="matrix(-0.4999,-0.8661,0.8661,-0.4999,209.26,524.1844)"
   style="fill:#4eb79b"
   width="71.630997"
   height="19"
   id="rect865" />

	<rect
   x="314.298"
   y="246.494"
   style="fill:#4eb79b"
   width="71.605003"
   height="19"
   id="rect867" />

	
		<rect
   x="246.491"
   y="57.215"
   transform="matrix(-0.866,-0.5001,0.5001,-0.866,431.1534,301.5999)"
   style="fill:#4eb79b"
   width="19.000999"
   height="71.619003"
   id="rect869" />

</g>
      <path
         style="fill:#5dacd8"
         d="m 287.369,2.248 c 20.115,0 36.429,16.315 36.429,36.429 0,20.127 -16.315,36.429 -36.429,36.429 -6.637,0 -12.857,-1.773 -18.215,-4.877 C 258.273,63.934 250.939,52.166 250.939,38.676 250.94,18.563 267.254,2.248 287.369,2.248 Z"
         id="path873" />
      <g
         id="g885">
	<path
   style="fill:#e88158"
   d="m 431.047,224.46 c 10.893,6.27 18.227,18.05 18.227,31.54 0,13.49 -7.334,25.27 -18.227,31.553 -5.358,3.103 -11.577,4.877 -18.202,4.877 -20.127,0 -36.429,-16.302 -36.429,-36.429 0,-20.115 16.302,-36.429 36.429,-36.429 6.625,-0.001 12.844,1.772 18.202,4.888 z"
   id="path875" />

	<path
   style="fill:#e88158"
   d="m 242.846,115.792 c 10.893,6.295 18.215,18.063 18.215,31.553 0,13.477 -7.321,25.257 -18.215,31.54 -5.358,3.116 -11.577,4.889 -18.215,4.889 -20.115,0 -36.429,-16.315 -36.429,-36.429 0,-20.127 16.315,-36.429 36.429,-36.429 6.637,0 12.857,1.773 18.215,4.876 z"
   id="path877" />

	<path
   style="fill:#e88158"
   d="m 287.369,219.571 c 20.115,0 36.429,16.315 36.429,36.429 0,20.127 -16.315,36.429 -36.429,36.429 -6.637,0 -12.857,-1.773 -18.215,-4.877 C 258.274,281.257 250.94,269.49 250.94,256 c 0,-13.477 7.334,-25.257 18.215,-31.54 5.357,-3.116 11.577,-4.889 18.214,-4.889 z"
   id="path879" />

	<path
   style="fill:#e88158"
   d="m 242.846,396.22 c -5.358,3.103 -11.577,4.877 -18.215,4.877 -20.115,0 -36.429,-16.315 -36.429,-36.429 0,-20.127 16.315,-36.442 36.429,-36.442 6.637,0 12.857,1.773 18.215,4.889 10.893,6.283 18.215,18.063 18.215,31.553 -10e-4,13.477 -7.322,25.257 -18.215,31.552 z"
   id="path881" />

	<path
   style="fill:#e88158"
   d="m 135.597,364.667 c 0,20.115 -16.315,36.429 -36.429,36.429 -6.637,0 -12.869,-1.773 -18.227,-4.877 -10.881,-6.308 -18.202,-18.075 -18.202,-31.553 0,-13.49 7.321,-25.257 18.202,-31.553 5.358,-3.116 11.59,-4.889 18.227,-4.889 20.114,0.001 36.429,16.316 36.429,36.443 z"
   id="path883" />

</g>
      <g
         id="g897">
	<path
   style="fill:#5dacd8"
   d="m 54.644,441.77 c 10.893,6.308 18.215,18.075 18.215,31.553 0,20.115 -16.315,36.429 -36.429,36.429 -20.114,0 -36.43,-16.315 -36.43,-36.43 0,-20.115 16.315,-36.429 36.429,-36.429 6.638,0 12.857,1.773 18.215,4.877 z"
   id="path887" />

	<path
   style="fill:#5dacd8"
   d="m 287.369,436.893 c 20.115,0 36.429,16.315 36.429,36.429 0,20.115 -16.315,36.429 -36.429,36.429 -20.115,0 -36.429,-16.315 -36.429,-36.429 0,-13.477 7.334,-25.257 18.215,-31.553 5.357,-3.103 11.577,-4.876 18.214,-4.876 z"
   id="path889" />

	<path
   style="fill:#5dacd8"
   d="m 431.047,441.77 c 10.893,6.283 18.227,18.063 18.227,31.553 0,20.115 -16.315,36.429 -36.429,36.429 -20.127,0 -36.429,-16.315 -36.429,-36.429 0,-20.115 16.302,-36.429 36.429,-36.429 6.625,-0.001 12.844,1.772 18.202,4.876 z"
   id="path891" />

	<path
   style="fill:#5dacd8"
   d="m 475.571,328.225 c 20.127,0 36.429,16.315 36.429,36.442 0,20.115 -16.302,36.429 -36.429,36.429 -6.637,0 -12.857,-1.773 -18.215,-4.889 -10.881,-6.283 -18.215,-18.063 -18.215,-31.54 0,-13.49 7.334,-25.27 18.215,-31.553 5.358,-3.115 11.577,-4.889 18.215,-4.889 z"
   id="path893" />

	<path
   style="fill:#5dacd8"
   d="m 475.571,110.916 c 20.127,0 36.429,16.302 36.429,36.429 0,20.115 -16.302,36.429 -36.429,36.429 -6.637,0 -12.857,-1.773 -18.215,-4.889 -10.881,-6.283 -18.215,-18.063 -18.215,-31.54 0,-20.127 16.315,-36.429 36.43,-36.429 z"
   id="path895" />

</g>
      <g
         id="g903">
	<path
   style="fill:#4c9cbf"
   d="m 475.571,183.775 c -6.637,0 -12.857,-1.773 -18.215,-4.889 -10.881,-6.283 -18.215,-18.063 -18.215,-31.54 0,-20.127 16.315,-36.429 36.429,-36.429 -9.335,0 -16.897,16.302 -16.897,36.429 0,13.477 3.407,25.257 8.449,31.54 2.483,3.115 5.371,4.889 8.449,4.889 z"
   id="path899" />

	<path
   style="fill:#4c9cbf"
   d="m 287.369,75.107 c -6.637,0 -12.857,-1.773 -18.215,-4.889 -10.881,-6.283 -18.215,-18.063 -18.215,-31.54 0,-20.127 16.315,-36.429 36.429,-36.429 -9.335,0 -16.897,16.302 -16.897,36.429 0,13.477 3.407,25.257 8.449,31.54 2.483,3.116 5.371,4.889 8.449,4.889 z"
   id="path901" />

</g>
      <g
         id="g909">
	<path
   style="fill:#5dacd8"
   d="m 54.644,224.46 c 10.893,6.295 18.215,18.063 18.215,31.54 0,13.49 -7.321,25.257 -18.215,31.553 -5.358,3.103 -11.577,4.877 -18.215,4.877 C 16.315,292.429 0,276.127 0,256 c 0,-20.115 16.315,-36.429 36.429,-36.429 6.638,0 12.857,1.773 18.215,4.889 z"
   id="path905" />

	<path
   style="fill:#5dacd8"
   d="m 135.597,147.345 c 0,20.115 -16.315,36.429 -36.429,36.429 -6.637,0 -12.869,-1.773 -18.227,-4.889 -10.881,-6.295 -18.202,-18.063 -18.202,-31.54 0,-20.127 16.302,-36.429 36.429,-36.429 20.114,0 36.429,16.302 36.429,36.429 z"
   id="path907" />

</g>
      <g
         id="g923">
	<path
   style="fill:#4c9cbf"
   d="m 412.845,509.752 c -6.637,0 -12.857,-1.773 -18.215,-4.889 -10.881,-6.283 -18.215,-18.063 -18.215,-31.54 0,-20.127 16.315,-36.429 36.429,-36.429 -9.335,0 -16.897,16.302 -16.897,36.429 0,13.477 3.407,25.257 8.449,31.54 2.483,3.115 5.371,4.889 8.449,4.889 z"
   id="path911" />

	<path
   style="fill:#4c9cbf"
   d="m 475.571,401.097 c -6.637,0 -12.857,-1.773 -18.215,-4.889 -10.881,-6.283 -18.215,-18.063 -18.215,-31.54 0,-20.127 16.315,-36.429 36.429,-36.429 -9.335,0 -16.897,16.302 -16.897,36.429 0,13.477 3.407,25.257 8.449,31.54 2.483,3.116 5.371,4.889 8.449,4.889 z"
   id="path913" />

	<path
   style="fill:#4c9cbf"
   d="m 287.369,509.752 c -6.637,0 -12.857,-1.773 -18.215,-4.889 -10.881,-6.283 -18.215,-18.063 -18.215,-31.54 0,-20.127 16.315,-36.429 36.429,-36.429 -9.335,0 -16.897,16.302 -16.897,36.429 0,13.477 3.407,25.257 8.449,31.54 2.483,3.115 5.371,4.889 8.449,4.889 z"
   id="path915" />

	<path
   style="fill:#4c9cbf"
   d="m 36.429,509.752 c -6.637,0 -12.857,-1.773 -18.215,-4.889 C 7.334,498.58 0,486.8 0,473.322 c 0,-20.127 16.315,-36.429 36.429,-36.429 -9.335,0 -16.897,16.302 -16.897,36.429 0,13.477 3.407,25.257 8.449,31.54 2.482,3.116 5.37,4.89 8.448,4.89 z"
   id="path917" />

	<path
   style="fill:#4c9cbf"
   d="m 36.429,292.429 c -6.637,0 -12.857,-1.773 -18.215,-4.889 C 7.334,281.257 0,269.477 0,256 c 0,-20.127 16.315,-36.429 36.429,-36.429 -9.335,0 -16.897,16.302 -16.897,36.429 0,13.477 3.407,25.257 8.449,31.54 2.482,3.116 5.37,4.889 8.448,4.889 z"
   id="path919" />

	<path
   style="fill:#4c9cbf"
   d="m 99.167,183.775 c -6.637,0 -12.857,-1.773 -18.215,-4.889 -10.881,-6.283 -18.215,-18.063 -18.215,-31.54 0,-20.127 16.315,-36.429 36.429,-36.429 -9.335,0 -16.897,16.302 -16.897,36.429 0,13.477 3.407,25.257 8.449,31.54 2.483,3.115 5.371,4.889 8.449,4.889 z"
   id="path921" />

</g>
      <g
         id="g935">
	<path
   style="fill:#d37250"
   d="m 224.631,401.097 c -6.637,0 -12.857,-1.773 -18.215,-4.889 -10.881,-6.283 -18.215,-18.063 -18.215,-31.54 0,-20.127 16.315,-36.429 36.429,-36.429 -9.335,0 -16.897,16.302 -16.897,36.429 0,13.477 3.407,25.257 8.449,31.54 2.483,3.116 5.371,4.889 8.449,4.889 z"
   id="path925" />

	<path
   style="fill:#d37250"
   d="m 99.167,401.097 c -6.637,0 -12.857,-1.773 -18.215,-4.889 -10.881,-6.283 -18.215,-18.063 -18.215,-31.54 0,-20.127 16.315,-36.429 36.429,-36.429 -9.335,0 -16.897,16.302 -16.897,36.429 0,13.477 3.407,25.257 8.449,31.54 2.483,3.116 5.371,4.889 8.449,4.889 z"
   id="path927" />

	<path
   style="fill:#d37250"
   d="m 224.631,183.775 c -6.637,0 -12.857,-1.773 -18.215,-4.889 -10.881,-6.283 -18.215,-18.063 -18.215,-31.54 0,-20.127 16.315,-36.429 36.429,-36.429 -9.335,0 -16.897,16.302 -16.897,36.429 0,13.477 3.407,25.257 8.449,31.54 2.483,3.115 5.371,4.889 8.449,4.889 z"
   id="path929" />

	<path
   style="fill:#d37250"
   d="m 287.369,292.429 c -6.637,0 -12.857,-1.773 -18.215,-4.889 -10.881,-6.283 -18.215,-18.063 -18.215,-31.54 0,-20.127 16.315,-36.429 36.429,-36.429 -9.335,0 -16.897,16.302 -16.897,36.429 0,13.477 3.407,25.257 8.449,31.54 2.483,3.116 5.371,4.889 8.449,4.889 z"
   id="path931" />

	<path
   style="fill:#d37250"
   d="m 412.845,292.429 c -6.637,0 -12.857,-1.773 -18.215,-4.889 -10.881,-6.283 -18.215,-18.063 -18.215,-31.54 0,-20.127 16.315,-36.429 36.429,-36.429 -9.335,0 -16.897,16.302 -16.897,36.429 0,13.477 3.407,25.257 8.449,31.54 2.483,3.116 5.371,4.889 8.449,4.889 z"
   id="path933" />

</g>
      <g
         id="g937">
</g>
      <g
         id="g939">
</g>
      <g
         id="g941">
</g>
      <g
         id="g943">
</g>
      <g
         id="g945">
</g>
      <g
         id="g947">
</g>
      <g
         id="g949">
</g>
      <g
         id="g951">
</g>
      <g
         id="g953">
</g>
      <g
         id="g955">
</g>
      <g
         id="g957">
</g>
      <g
         id="g959">
</g>
      <g
         id="g961">
</g>
      <g
         id="g963">
</g>
      <g
         id="g965">
</g>
    </g>
    <text
       xml:space="preserve"
       style="font-weight:bold;font-size:127.874px;line-height:1.25;font-family:sans-serif;-inkscape-font-specification:'sans-serif Bold';opacity:0.7911;fill:#000080;stroke-width:0.264583"
       x="68.363052"
       y="127.49554"
       id="text1040"><tspan
         sodipodi:role="line"
         id="tspan1038"
         x="68.363052"
         y="127.49554"
         style="font-style:normal;font-variant:normal;font-weight:bold;font-stretch:normal;font-family:'Source Code Pro';-inkscape-font-specification:'Source Code Pro Bold';fill:#000080;stroke-width:0.264583">Q</tspan></text>
  </g>
</svg>
