<?xml version="1.0" standalone="no"?>
<!DOCTYPE svg PUBLIC "-//W3C//DTD SVG 20010904//EN"
 "http://www.w3.org/TR/2001/REC-SVG-20010904/DTD/svg10.dtd">
<svg version="1.0" xmlns="http://www.w3.org/2000/svg"
 width="580.000000pt" height="580.000000pt" viewBox="0 0 580.000000 580.000000"
 preserveAspectRatio="xMidYMid meet">
<metadata>
Created by potrace 1.11, written by Peter Selinger 2001-2013
</metadata>
<g transform="translate(0.000000,580.000000) scale(0.100000,-0.100000)"
fill="#000000" stroke="none">
<path d="M0 2900 l0 -2900 2900 0 2900 0 0 2900 0 2900 -2900 0 -2900 0 0
-2900z m2382 2251 c60 -48 132 -238 192 -507 66 -299 121 -656 221 -1439 91
-716 133 -1008 190 -1323 87 -476 181 -796 280 -953 l34 -54 -566 -3 -567 -2
-32 22 c-116 79 -234 408 -333 923 -59 308 -102 606 -207 1410 -108 834 -152
1128 -210 1400 -48 223 -120 453 -160 509 -8 11 -14 24 -14 28 0 5 258 8 574
8 552 0 574 -1 598 -19z m2413 -8 c84 -85 172 -379 249 -833 39 -227 94 -618
156 -1105 100 -791 166 -1221 235 -1551 76 -359 165 -631 246 -746 11 -14 19
-29 19 -32 0 -3 -257 -6 -571 -6 l-570 0 -47 48 c-111 114 -218 432 -311 927
-53 279 -106 638 -181 1225 -145 1126 -205 1499 -291 1799 -35 118 -60 185
-95 254 l-24 47 579 0 578 0 28 -27z m-3697 -47 c17 -26 32 -52 32 -57 0 -5
-45 -9 -100 -9 -55 0 -100 3 -100 6 0 10 22 48 47 82 20 27 31 33 56 30 26 -2
39 -13 65 -52z m2410 -6 l33 -55 -97 -3 c-53 -1 -99 -1 -101 2 -3 2 12 30 31
61 33 51 39 56 69 53 27 -3 37 -12 65 -58z m-2353 -117 c9 -20 18 -47 21 -60
l6 -23 -152 0 -152 0 6 23 c3 13 12 40 21 60 l15 37 110 0 110 0 15 -37z
m2413 -23 l20 -59 -149 -3 c-82 -2 -149 0 -149 4 0 4 9 32 21 63 l20 55 109 0
108 0 20 -60z m-2368 -114 c5 -13 12 -40 15 -60 l7 -36 -191 0 c-209 0 -201
-3 -180 61 6 19 12 40 15 47 2 9 44 12 164 12 160 0 161 0 170 -24z m2414 -30
c9 -30 16 -57 16 -60 0 -3 -85 -6 -190 -6 -104 0 -190 4 -190 8 0 5 7 32 15
60 l16 52 159 0 159 0 15 -54z m-2375 -123 c6 -21 11 -48 11 -60 l0 -23 -221
0 -221 0 7 46 c12 79 -4 74 216 74 l198 0 10 -37z m2406 0 c3 -21 9 -48 12
-60 l5 -23 -221 0 c-247 0 -230 -6 -210 76 l11 44 198 0 198 0 7 -37z m-2368
-168 l10 -55 -258 0 -257 0 9 43 c5 23 12 48 14 55 3 9 60 12 238 12 l234 0
10 -55z m2402 5 c6 -28 11 -53 11 -55 0 -3 -112 -5 -250 -5 -279 0 -261 -6
-239 73 l10 37 229 0 228 0 11 -50z m-2386 -107 c3 -10 8 -35 12 -55 l6 -38
-281 0 -281 0 6 38 c14 79 -13 72 275 72 238 0 259 -1 263 -17z m2414 -38 l10
-55 -279 0 c-261 0 -279 1 -275 18 3 9 8 34 12 55 l6 37 258 0 258 0 10 -55z
m-2383 -126 c15 -75 41 -69 -294 -69 -335 0 -309 -6 -294 69 l7 31 287 0 288
0 6 -31z m2401 19 c2 -7 6 -30 10 -50 l6 -38 -302 0 -302 0 7 38 c3 20 6 43 6
50 0 9 64 12 285 12 220 0 287 -3 290 -12z m-2381 -150 c3 -13 6 -35 6 -50 l0
-28 -320 0 c-357 0 -329 -6 -314 69 l7 31 307 0 308 0 6 -22z m2406 3 c0 -10
3 -33 6 -50 l7 -31 -323 0 -323 0 7 38 c3 20 6 43 6 50 0 9 69 12 310 12 296
0 310 -1 310 -19z m-2379 -178 l5 -43 -347 0 c-385 0 -349 -7 -334 63 l5 27
333 -2 332 -3 6 -42z m2399 33 c0 -7 3 -28 6 -45 l7 -31 -342 0 -341 0 0 23
c0 12 3 32 6 45 l6 22 329 0 c273 0 329 -2 329 -14z m-2386 -142 c3 -9 6 -29
6 -45 l0 -29 -360 0 -360 0 0 29 c0 65 -22 61 360 61 308 0 349 -2 354 -16z
m2406 2 c0 -7 3 -28 6 -45 l7 -31 -362 0 -361 0 0 23 c0 12 3 32 6 45 l6 22
349 0 c289 0 349 -2 349 -14z m-2388 -141 c4 -5 8 -25 8 -42 l0 -33 -380 -2
-380 -3 0 25 c0 14 3 34 6 45 5 20 13 20 372 20 233 0 370 -4 374 -10z m2404
2 c1 -1 4 -19 8 -39 l7 -38 -381 0 c-316 0 -380 2 -380 14 0 7 3 26 6 42 l5
29 367 -3 c201 -2 367 -4 368 -5z m-2382 -153 c3 -9 6 -29 6 -45 l0 -29 -400
0 -400 0 0 23 c0 12 3 32 6 45 l6 22 388 0 c344 0 389 -2 394 -16z m2409 -21
c2 -21 2 -41 0 -45 -2 -5 -182 -8 -399 -8 -328 0 -394 2 -394 14 0 7 3 28 6
45 l7 31 387 0 388 0 5 -37z m-2389 -134 c3 -17 6 -38 6 -45 0 -12 -70 -14
-420 -14 -350 0 -420 2 -420 14 0 7 3 28 6 45 l7 31 407 0 408 0 6 -31z m2407
-11 c3 -21 4 -40 1 -43 -3 -3 -192 -5 -419 -5 l-414 0 7 38 c4 20 9 40 11 45
2 4 185 6 406 5 l402 -3 6 -37z m-2391 -125 c0 -10 3 -28 6 -40 l6 -23 -442 0
-442 0 6 23 c3 12 6 30 6 40 0 16 27 17 430 17 403 0 430 -1 430 -17z m2410
-23 l0 -40 -436 0 c-394 0 -436 2 -430 16 3 9 6 27 6 40 l0 24 430 0 430 0 0
-40z m-2396 -112 c3 -7 7 -25 10 -40 l6 -28 -460 0 -460 0 6 28 c3 15 7 33 10
40 3 9 100 12 444 12 344 0 441 -3 444 -12z m2410 -4 c3 -9 6 -27 6 -40 l0
-24 -450 0 -450 0 0 33 c0 19 3 37 7 40 3 4 203 7 444 7 389 0 438 -2 443 -16z
m-2384 -169 l0 -35 -470 0 -470 0 0 35 0 35 470 0 470 0 0 -35z m2404 13 c3
-13 6 -29 6 -35 0 -10 -101 -13 -470 -13 l-470 0 0 28 c0 16 3 32 7 35 3 4
212 7 464 7 l457 0 6 -22z m-2386 -155 l3 -33 -490 0 -491 0 0 28 c0 16 3 32
7 35 3 4 223 6 487 5 l481 -3 3 -32z m2402 25 c0 -7 3 -23 6 -35 l6 -23 -476
0 c-374 0 -476 3 -476 13 0 6 -3 22 -6 35 l-6 22 476 0 c374 0 476 -3 476 -12z
m-2382 -170 l3 -28 -510 0 -511 0 0 23 c0 13 3 27 7 30 3 4 232 6 507 5 l501
-3 3 -27z m2402 18 c0 -8 3 -21 6 -30 6 -14 -40 -16 -470 -16 -262 0 -476 3
-476 8 0 4 -3 17 -6 30 l-6 22 476 0 c404 0 476 -2 476 -14z m-2382 -158 l3
-28 -530 0 c-564 0 -543 -2 -525 44 6 15 59 16 528 14 l521 -3 3 -27z m2402
18 c0 -8 3 -21 6 -30 6 -14 -40 -16 -470 -16 -262 0 -476 3 -476 8 0 4 -3 17
-6 30 l-6 22 476 0 c404 0 476 -2 476 -14z m-2380 -163 l0 -28 -550 0 -550 0
0 28 0 27 550 0 550 0 0 -27z m2400 7 c0 -11 0 -22 0 -25 0 -3 -212 -7 -470
-8 -353 -1 -470 1 -470 10 0 6 -3 18 -6 27 -6 14 40 16 470 16 469 0 476 0
476 -20z m-2382 -152 l3 -28 -570 0 -571 0 0 23 c0 13 3 27 7 30 3 4 259 6
567 5 l561 -3 3 -27z m2402 25 c0 -5 3 -18 6 -30 l6 -23 -476 0 c-404 0 -476
2 -476 14 0 8 -3 21 -6 30 -6 14 40 16 470 16 262 0 476 -3 476 -7z m-2380
-168 l0 -25 -590 0 -590 0 0 25 0 25 590 0 590 0 0 -25z m2408 -2 l3 -23 -475
0 -476 0 0 25 0 25 473 -2 472 -3 3 -22z m-2418 -138 l0 -25 -600 0 c-358 0
-600 4 -600 9 0 42 -21 41 606 41 l594 0 0 -25z m2412 0 l-4 -25 -453 0 c-477
0 -465 -1 -465 41 0 5 189 9 464 9 l463 0 -5 -25z m-2439 -145 c-5 -20 -14
-20 -603 -20 -593 0 -598 0 -593 20 5 20 14 20 603 20 593 0 598 0 593 -20z
m2417 16 c0 -2 -3 -11 -6 -20 -5 -14 -53 -16 -435 -16 -422 0 -429 0 -429 20
0 20 7 20 435 20 239 0 435 -2 435 -4z m-2440 -140 c0 -2 -3 -11 -6 -20 -6
-14 -68 -16 -600 -16 -587 0 -594 0 -594 20 0 20 7 20 600 20 330 0 600 -2
600 -4z m2408 -13 c-3 -17 -32 -18 -406 -21 -397 -2 -402 -2 -402 18 0 20 6
20 406 20 381 0 405 -1 402 -17z m-2448 -148 c0 -13 -73 -15 -595 -15 -522 0
-595 2 -595 15 0 13 73 15 595 15 522 0 595 -2 595 -15z m2414 0 c-5 -13 -56
-15 -375 -15 -321 0 -369 2 -369 15 0 13 48 15 375 15 329 0 374 -2 369 -15z
m-2446 -137 c-4 -10 -135 -14 -601 -16 -328 -1 -597 2 -597 6 0 5 3 12 7 15 3
4 274 7 601 7 470 0 593 -3 590 -12z m2410 0 c-4 -10 -82 -14 -336 -16 -291
-2 -332 0 -332 13 0 13 43 15 336 15 264 0 335 -3 332 -12z m-2458 -148 c0 -7
-205 -10 -595 -10 -390 0 -595 3 -595 10 0 7 205 10 595 10 390 0 595 -3 595
-10z m2415 0 c-4 -6 -113 -10 -296 -10 -186 0 -289 4 -289 10 0 6 105 10 296
10 194 0 293 -3 289 -10z m-2465 -139 c0 -5 -7 -11 -15 -15 -8 -3 -276 -6
-595 -6 -512 0 -580 1 -580 15 0 13 70 15 595 15 342 0 595 -4 595 -9z m2410
0 c0 -18 -36 -21 -245 -21 -177 0 -215 3 -225 15 -11 13 15 15 229 15 135 0
241 -4 241 -9z m-2506 -137 c9 -3 13 -10 10 -15 -7 -11 -1174 -12 -1174 -1 0
5 3 12 7 15 8 9 1135 9 1157 1z m2423 -8 c-2 -7 -53 -12 -149 -14 -118 -2
-147 0 -157 12 -11 13 8 15 149 14 113 -1 160 -4 157 -12z"/>
</g>
</svg>
